<?xml version="1.0" encoding="UTF-8" standalone="no"?>
<svg width="300px" height="300px" viewBox="0 0 300 300" version="1.1" xmlns="http://www.w3.org/2000/svg" xmlns:xlink="http://www.w3.org/1999/xlink">
    <!-- Generator: Sketch 39.1 (31720) - http://www.bohemiancoding.com/sketch -->
    <title>Artboard 2 Copy</title>
    <desc>Created with Sketch.</desc>
    <defs></defs>
    <g id="Page-1" stroke="none" stroke-width="1" fill="none" fill-rule="evenodd">
        <g id="Artboard-2-Copy">
            <g id="Group-3" transform="translate(0.000000, 58.000000)">
                <path d="M98.4732348,124.148582 C110.281464,112.147059 116.35549,100.853152 119.927409,86.7287843 C122.49748,85.6518439 124.886312,82.6879303 126.071917,78.5850049 C127.685448,73.0358137 126.550187,67.3686868 123.589949,65.0347988 C123.959979,61.6550062 124.302319,58.126242 124.622005,54.3864348 C127.514278,20.3960873 116.013149,0.520796496 89.6076237,0.520796496 C87.6668553,0.520796496 85.6405018,0.629421602 83.5361149,0.84356824 C75.4583903,1.67842977 70.1722508,7.22451733 70.1722508,7.22451733 C68.1408629,6.67518465 66.2202322,6.41448439 64.4103588,6.41448439 C47.2027161,6.41138082 40.068945,29.9457859 42.4351217,54.392642 C42.7950826,58.1014134 43.1625952,61.6146597 43.5603143,64.982038 C40.5321115,67.2507509 39.3616092,72.983053 40.9852092,78.5850049 C42.2085729,82.7872447 44.6779552,85.7852976 47.3134733,86.7970629 C50.8627384,100.890395 56.8058695,112.193613 68.586409,124.148582 C38.7046176,133.359991 13.175081,147.183311 13.175081,160.997321 L13.175081,162.536694 C13.175081,169.972858 44.6804724,176 83.5335977,176 C122.384206,176 153.882046,169.979066 153.882046,162.536694 L153.882046,160.997321 L153.889597,160.997321 C153.889597,147.177104 128.360061,133.356887 98.4732348,124.148582 L98.4732348,124.148582 Z M269.542778,102.733918 C269.542778,102.733918 258.796811,76.2542205 258.796811,54.1753917 C258.796811,18.859818 240.899453,1.2128936 219.415072,1.2128936 C197.935725,1.23461862 180.033333,18.8753358 180.033333,54.1909096 C180.033333,72.0426699 173.012836,92.7559259 170.324457,100.033808 C170.299284,101.234891 170.206148,102.491839 170.143217,103.720854 C173.470968,107.445144 186.623387,121.004661 205.094668,124.803436 C187.798923,131.919932 155.983915,153.120447 155.983915,162.921538 C155.983915,172.722628 188.883841,175.546878 220.240717,175.546878 C256.674804,175.546878 286.20922,169.892165 286.20922,162.921537 L286.20922,160.112802 C286.206703,151.280029 265.960789,138.037077 233.743027,124.791021 C255.222374,120.377739 269.542778,102.733918 269.542778,102.733918 Z" id="Shape" stroke="#5C5C5C" stroke-width="6"></path>
                <text id="Community" font-family="Helvetica" font-size="48" font-weight="normal" letter-spacing="1.23000002" fill="#525252">
                    <tspan x="14.6971874" y="229.22583">Community</tspan>
                </text>
            </g>
        </g>
    </g>
</svg>