<?xml version="1.0" encoding="UTF-8" standalone="no"?>
<svg width="181px" height="186px" viewBox="0 0 181 186" version="1.1" xmlns="http://www.w3.org/2000/svg" xmlns:xlink="http://www.w3.org/1999/xlink">
    <!-- Generator: Sketch 39.1 (31720) - http://www.bohemiancoding.com/sketch -->
    <title>Group 5</title>
    <desc>Created with Sketch.</desc>
    <defs></defs>
    <g id="Page-1" stroke="none" stroke-width="1" fill="none" fill-rule="evenodd">
        <g id="Babsoncode.com-(Scroll2)" transform="translate(-1101.000000, -99.000000)">
            <g id="Group-6" transform="translate(90.000000, 58.000000)">
                <g id="Group-5" transform="translate(1007.000000, 40.314411)">
                    <path d="M97.8477778,7.16712761 L97.848893,3.10973896 C97.848893,1.87578031 96.8485371,0.874306625 95.6134607,0.874306625 C94.3783843,0.874306625 93.3780284,1.87578031 93.3780284,3.10973896 L93.3769116,7.16712761 L49.7870979,7.16712761 C47.3180629,7.16712761 45.3162332,8.43020413 45.3162332,10.1479376 C45.3162333,11.865671 47.3180629,13.1683449 49.7870979,13.1683449 L56.8667121,13.1683449 L56.8667121,69.2408118 C56.8667121,71.7098468 58.8685418,73.7116764 61.3375768,73.7116764 L87.7257377,73.7116764 L69.9316964,91.5057178 C69.05876,92.3786541 69.05876,93.7936828 69.9316964,94.6666191 C70.3687234,95.1036461 70.9398763,95.3216008 71.512147,95.3216008 C72.0844177,95.3216008 72.6555707,95.1036461 73.0925977,94.6666191 L93.3769107,74.3823061 L93.3769107,93.0850507 C93.3769107,94.3201271 94.3772666,95.3204831 95.612343,95.3204831 C96.8474194,95.3204831 97.8477753,94.3201271 97.8477753,93.0850507 L97.8477753,73.7262067 L118.48864,94.3670712 C119.361576,95.2400075 120.776605,95.2400075 121.649541,94.3670712 C122.522477,93.4941349 122.522477,92.0791062 121.649541,91.2061699 L104.155048,73.7116764 L129.890462,73.7116764 C132.359497,73.7116764 134.361327,71.7098468 134.361327,69.2408118 L134.361327,13.1683449 L141.438706,13.1683449 C143.907741,13.1683449 146.00137,11.6452421 146.001369,10.1479376 C146.001368,8.65063301 143.906619,7.16712761 141.438702,7.16712761 L97.8477778,7.16712761 Z M130.056413,70.0691648 L61.1705082,70.0691648 L61.1705082,13.0228237 L130.056413,13.0228237 L130.056413,70.0691648 L130.056413,70.0691648 Z" id="Shape" fill="#5C5C5C"></path>
                    <text id="Projects" font-family="Helvetica" font-size="48" font-weight="normal" letter-spacing="1.23323083" fill="#525252">
                        <tspan x="0.922545433" y="174">Projects</tspan>
                    </text>
                </g>
            </g>
        </g>
    </g>
</svg>