<?xml version="1.0" encoding="UTF-8" standalone="no"?>
<svg width="372px" height="172px" viewBox="0 0 372 172" version="1.1" xmlns="http://www.w3.org/2000/svg" xmlns:xlink="http://www.w3.org/1999/xlink">
    <!-- Generator: Sketch 39.1 (31720) - http://www.bohemiancoding.com/sketch -->
    <title>Group 3</title>
    <desc>Created with Sketch.</desc>
    <defs></defs>
    <g id="Page-1" stroke="none" stroke-width="1" fill="none" fill-rule="evenodd">
        <g id="Babsoncode.com-(Scroll2)" transform="translate(-535.000000, -113.000000)">
            <g id="Group-6" transform="translate(90.000000, 58.000000)">
                <g id="Group-3" transform="translate(445.000000, 56.314411)">
                    <path d="M159.947536,55.7137509 C166.421914,50.3801187 169.752264,45.3609597 171.710725,39.0839076 C173.119879,38.6053014 174.42966,37.2880997 175.07972,35.4647064 C175.964409,32.9985739 175.341952,30.4800292 173.718872,29.4428191 C173.921757,27.9407954 174.109461,26.3725669 174.284742,24.710548 C175.870557,9.6047967 169.564561,0.77195964 155.086577,0.77195964 C154.022466,0.77195964 152.91143,0.820234046 151.757607,0.915403589 C147.328642,1.28642688 144.430285,3.75118013 144.430285,3.75118013 C143.316488,3.50704957 142.263418,3.39119099 141.271076,3.39119099 C131.836234,3.38981172 127.924832,13.8488066 129.222192,24.7133066 C129.419556,26.3615327 129.621061,27.9228649 129.839128,29.4193715 C128.178783,30.427617 127.537004,32.9751264 128.427214,35.4647064 C129.097976,37.3322363 130.451923,38.6646099 131.896961,39.1142516 C133.843001,45.3775109 137.101582,50.4008077 143.560778,55.7137509 C127.17678,59.8074206 113.179096,65.9506836 113.179096,72.0898088 L113.179096,72.7739261 C113.179096,76.078654 130.453303,78.7571939 151.756227,78.7571939 C173.057771,78.7571939 190.327838,76.0814125 190.327838,72.7739261 L190.327838,72.0898088 L190.331979,72.0898088 C190.331979,65.947925 176.334295,59.8060413 159.947536,55.7137509 L159.947536,55.7137509 Z M253.743889,46.1967966 C253.743889,46.1967966 247.851944,34.4288756 247.851944,24.6167577 C247.851944,8.92205867 238.038935,1.07953657 226.259184,1.07953657 C214.482193,1.08919145 204.666424,8.92895501 204.666424,24.6236541 C204.666424,32.5572079 200.81713,41.7624475 199.343109,44.9968328 C199.329307,45.5306098 199.278241,46.0892136 199.243736,46.635404 C201.068321,48.2905265 208.279709,54.3165517 218.407397,56.0047766 C208.924249,59.1674399 191.48028,68.5892236 191.48028,72.9449555 C191.48028,77.3006874 209.519102,78.5558207 226.71188,78.5558207 C246.68846,78.5558207 262.881995,76.042793 262.881995,72.9449554 L262.881995,71.6967172 C262.880615,67.7713183 251.779907,61.8859786 234.115112,55.9992596 C245.892102,54.0379394 253.743889,46.1967966 253.743889,46.1967966 Z" id="Shape" stroke="#5C5C5C" stroke-width="4"></path>
                    <text id="The-Community" font-family="Helvetica" font-size="48" font-weight="normal" letter-spacing="1.23323083" fill="#525252">
                        <tspan x="0.89415586" y="158">The Community</tspan>
                    </text>
                </g>
            </g>
        </g>
    </g>
</svg>