<?xml version="1.0" encoding="UTF-8" standalone="no"?>
<svg width="284px" height="216px" viewBox="0 0 284 216" version="1.1" xmlns="http://www.w3.org/2000/svg" xmlns:xlink="http://www.w3.org/1999/xlink">
    <!-- Generator: Sketch 39.1 (31720) - http://www.bohemiancoding.com/sketch -->
    <title>Group 2</title>
    <desc>Created with Sketch.</desc>
    <defs></defs>
    <g id="Page-1" stroke="none" stroke-width="1" fill="none" fill-rule="evenodd">
        <g id="Babsoncode.com-(Scroll2)" transform="translate(-90.000000, -58.000000)">
            <g id="Group-6" transform="translate(90.000000, 58.000000)">
                <g id="Group-2" transform="translate(0.000000, 0.314411)">
                    <g id="Group" transform="translate(0.000000, 0.639766)">
                        <g id="Group-4">
                            <path d="M146.334588,52.5818649 C152.642211,52.5818649 157.756961,47.4452743 157.756961,41.1087937 C157.756961,34.7738734 152.642211,29.6372828 146.334588,29.6372828 C140.030073,29.6372828 134.915322,34.7738734 134.915322,41.1087937 C134.916876,47.443714 140.031626,52.5818649 146.334588,52.5818649 L146.334588,52.5818649 Z" id="Shape" stroke="#5C5C5C" stroke-width="3"></path>
                            <path d="M188.14569,60.8625108 C186.079909,58.8481309 182.769999,58.8902597 180.755474,60.9748542 L173.107424,68.8919443 L159.415799,59.1836009 C158.532017,58.5579104 157.478935,58.2224405 156.399447,58.2224405 L136.181196,58.2224405 C135.303627,58.2224405 134.440037,58.445567 133.671194,58.8684152 L118.0163,67.4860913 L110.09799,59.2054454 C108.10055,57.1177303 104.792194,57.049076 102.709327,59.0556542 C100.628014,61.0669134 100.561225,64.3888457 102.561771,66.4796815 L113.252577,77.6594116 C114.88967,79.3679677 117.452482,79.7705316 119.521369,78.6236926 L132.989331,71.2043462 L132.989331,134.806322 C132.989331,137.703846 134.763107,140.055256 137.648988,140.055256 C140.534869,140.055256 142.308645,137.703846 142.308645,134.806322 L142.308645,95.6702454 L148.521521,95.6702454 L148.521521,134.806322 C148.521521,137.703846 150.293744,140.055256 153.179624,140.055256 C156.065505,140.055256 157.840835,137.703846 157.840835,134.806322 L157.840835,70.853273 L170.779149,80.0607521 C171.689335,80.7036061 172.720672,81.0187917 173.770648,81.0187917 C175.142141,81.0187917 176.491888,80.4757986 177.507693,79.4256997 L188.265288,68.2865381 C190.2736,66.2066246 190.219237,62.8831319 188.14569,60.8625108 L188.14569,60.8625108 Z" id="Shape" stroke="#5C5C5C" stroke-width="3"></path>
                            <path d="M147.400097,5.93438264 C147.400097,5.04499727 146.715127,4.29916183 145.146376,4.29916183 C143.718968,4.29916183 142.519883,4.98726524 141.634548,6.07793256 L139.323358,3.46906882 C140.836193,1.66221223 143.119425,0.688569307 145.573511,0.688569307 C149.257746,0.688569307 151.511467,2.5515976 151.511467,5.21819337 C151.511467,9.40454589 146.744638,9.71973158 146.744638,12.1288737 C146.744638,12.586049 146.744638,13.7384518 146.744638,13.7384518 L143.759077,13.7384518 C143.759077,13.7384518 143.203299,12.701513 143.203299,11.6982239 C143.203299,8.31387858 147.400097,7.912875 147.400097,5.93438264 Z M143.203299,18.0924366 C143.203299,16.8301335 144.259488,15.7706727 145.514489,15.7706727 C146.772596,15.7706727 147.827232,16.8316939 147.827232,18.0924366 C147.827232,19.3531794 146.772596,20.4142005 145.514489,20.4142005 C144.257935,20.4142005 143.203299,19.3531794 143.203299,18.0924366 L143.203299,18.0924366 Z" id="Shape" stroke="#5C5C5C" stroke-width="2"></path>
                            <text id="Who-We-Are" font-family="Helvetica" font-size="48" font-weight="normal" letter-spacing="1.23323083" fill="#525252">
                                <tspan x="0.747908354" y="213.360234">Who We Are</tspan>
                            </text>
                        </g>
                    </g>
                </g>
            </g>
        </g>
    </g>
</svg>