<?xml version="1.0" encoding="UTF-8" standalone="no"?>
<svg width="181px" height="291px" viewBox="0 0 181 291" version="1.1" xmlns="http://www.w3.org/2000/svg" xmlns:xlink="http://www.w3.org/1999/xlink">
    <!-- Generator: Sketch 39.1 (31720) - http://www.bohemiancoding.com/sketch -->
    <title>Group 5</title>
    <desc>Created with Sketch.</desc>
    <defs></defs>
    <g id="Page-1" stroke="none" stroke-width="1" fill="none" fill-rule="evenodd">
        <g id="Group-5" transform="translate(-59.000000, 0.000000)">
            <path d="M154.496491,11.7246904 L154.498252,4.17455927 C154.498252,1.87836574 152.918743,0.0147883871 150.968622,0.0147883871 C149.018502,0.0147883871 147.438992,1.87836574 147.438992,4.17455927 L147.437229,11.7246904 L78.6112072,11.7246904 C74.7127308,11.7246904 71.5519472,14.0750675 71.5519472,17.2714861 C71.5519472,20.4679047 74.7127309,22.8919659 78.6112072,22.8919659 L89.7895454,22.8919659 L89.7895454,127.233579 C89.7895454,131.828046 92.9503291,135.553121 96.8488054,135.553121 L138.514323,135.553121 L110.418468,168.664897 C109.040147,170.289287 109.040147,172.922422 110.418468,174.546813 C111.108511,175.360048 112.010331,175.765626 112.913916,175.765626 C113.817502,175.765626 114.719322,175.360048 115.409365,174.546813 L147.437227,136.801052 L147.437227,171.603775 C147.437227,173.902048 149.016737,175.763546 150.966857,175.763546 C152.916978,175.763546 154.496487,173.902048 154.496487,171.603775 L154.496487,135.580159 L187.087326,173.989404 C188.465646,175.613794 190.699902,175.613794 192.078223,173.989404 C193.456543,172.365013 193.456543,169.731878 192.078223,168.107488 L164.455338,135.553121 L205.090204,135.553121 C208.98868,135.553121 212.149464,131.828046 212.149464,127.233579 L212.149464,22.8919659 L223.324272,22.8919659 C227.222749,22.8919659 230.528479,20.0577229 230.528477,17.2714861 C230.528476,14.4852493 227.220978,11.7246904 223.324266,11.7246904 L154.496491,11.7246904 Z M205.352231,128.775007 L96.585013,128.775007 L96.585013,22.6211751 L205.352231,22.6211751 L205.352231,128.775007 L205.352231,128.775007 Z" id="Shape" fill="#5C5C5C"></path>
            <text id="Projects" font-family="Helvetica" font-size="48" font-weight="normal" letter-spacing="1.23323083" fill="#525252">
                <tspan x="55.9225454" y="278.270562">Projects</tspan>
            </text>
        </g>
    </g>
</svg>