<?xml version="1.0" encoding="UTF-8" standalone="no"?>
<svg width="300px" height="293px" viewBox="0 0 300 293" version="1.1" xmlns="http://www.w3.org/2000/svg" xmlns:xlink="http://www.w3.org/1999/xlink">
    <!-- Generator: Sketch 39.1 (31720) - http://www.bohemiancoding.com/sketch -->
    <title>Group 3</title>
    <desc>Created with Sketch.</desc>
    <defs></defs>
    <g id="Page-1" stroke="none" stroke-width="1" fill="none" fill-rule="evenodd">
        <g id="Group-3" transform="translate(0.000000, 3.000000)">
            <path d="M99.3284879,117.256819 C110.478454,105.924334 116.213877,95.2600173 119.586677,81.9230279 C122.013476,80.9061228 124.26914,78.1074357 125.388652,74.2332322 C126.912236,68.9933867 125.840261,63.6421798 123.045044,61.4383968 C123.394446,58.2470144 123.717702,54.914965 124.019567,51.3836373 C126.750607,19.288118 115.890621,0.520796496 90.9570998,0.520796496 C89.1245216,0.520796496 87.2111294,0.62336618 85.2240537,0.825574984 C77.5966305,1.61389627 72.6051725,6.85081125 72.6051725,6.85081125 C70.6870265,6.33210171 68.8734635,6.08593447 67.1644833,6.08593447 C50.9160991,6.08300391 44.1800076,28.3054585 46.4142793,51.3894984 C46.7541738,54.8915205 47.101199,58.2089171 47.4767468,61.3885773 C44.6173544,63.5308184 43.512103,68.9435671 45.0451937,74.2332322 C46.2003597,78.2012137 48.5320836,81.032137 51.020682,81.9875003 C54.3720895,95.2951841 59.9839144,105.968292 71.1077351,117.256819 C42.8917361,125.954728 18.7853708,139.007453 18.7853708,152.051386 L18.7853708,153.504945 C18.7853708,160.526572 48.5344605,166.217724 85.2216769,166.217724 C121.906516,166.217724 151.648475,160.532433 151.648475,153.504945 L151.648475,152.051386 L151.655606,152.051386 C151.655606,139.001592 127.549241,125.951797 99.3284879,117.256819 L99.3284879,117.256819 Z M260.861576,97.0359382 C260.861576,97.0359382 250.714655,72.0323799 250.714655,51.184359 C250.714655,17.8374896 233.815005,1.17431191 213.528293,1.17431191 C193.246336,1.19482585 176.341931,17.8521425 176.341931,51.1990119 C176.341931,68.0556067 169.7128,87.6141801 167.174287,94.4863489 C167.150518,95.6204765 167.062573,96.8073543 167.003151,97.967857 C170.145393,101.484532 182.564615,114.288159 200.006196,117.875167 C183.674621,124.594947 153.633174,144.613616 153.633174,153.868335 C153.633174,163.123053 184.699058,165.789862 214.307911,165.789862 C248.710942,165.789862 276.59893,160.450378 276.59893,153.868335 L276.59893,151.216176 C276.596554,142.875795 257.479269,130.371085 227.057521,117.863445 C247.339479,113.696185 260.861576,97.0359382 260.861576,97.0359382 Z" id="Shape" stroke="#5C5C5C" stroke-width="6"></path>
            <text id="The-Community" font-family="OpenSans, Open Sans" font-size="48" font-weight="normal" letter-spacing="-4.76999998" fill="#525252">
                <tspan x="0.530156136" y="277.22583">The Communit</tspan>
                <tspan x="275.282344" y="277.22583">y</tspan>
            </text>
        </g>
    </g>
</svg>