<?xml version="1.0" encoding="UTF-8" standalone="no"?>
<svg width="284px" height="286px" viewBox="0 0 284 286" version="1.1" xmlns="http://www.w3.org/2000/svg" xmlns:xlink="http://www.w3.org/1999/xlink">
    <!-- Generator: Sketch 39.1 (31720) - http://www.bohemiancoding.com/sketch -->
    <title>Group 2</title>
    <desc>Created with Sketch.</desc>
    <defs></defs>
    <g id="Page-1" stroke="none" stroke-width="1" fill="none" fill-rule="evenodd">
        <g id="Group-2" transform="translate(-6.000000, 0.000000)">
            <g id="Group" transform="translate(0.000000, 0.916481)">
                <g id="Group-4">
                    <path d="M159.13067,77.750564 C168.797713,77.750564 176.636563,70.152162 176.636563,60.7787992 C176.636563,51.4077445 168.797713,43.8093425 159.13067,43.8093425 C149.468389,43.8093425 141.629538,51.4077445 141.629538,60.7787992 C141.631919,70.1498539 149.470769,77.750564 159.13067,77.750564 L159.13067,77.750564 Z" id="Shape" stroke="#5C5C5C" stroke-width="6"></path>
                    <path d="M223.210237,89.9998712 C220.044227,87.0200604 214.971469,87.0823802 211.884014,90.1660574 L200.162636,101.877568 L179.178893,87.5163109 C177.824412,86.5907461 176.210461,86.0944957 174.556042,86.0944957 L143.569612,86.0944957 C142.224653,86.0944957 140.901118,86.4245599 139.722791,87.0500663 L115.730148,99.797932 L103.59457,87.5486248 C100.5333,84.4603314 95.4629236,84.3587732 92.2707285,87.3270432 C89.080914,90.3022377 88.9785542,95.2162711 92.044585,98.3091807 L108.429282,114.847015 C110.938285,117.37443 114.866042,117.96993 118.036813,116.273446 L138.67777,105.298233 L138.67777,199.382699 C138.67777,203.668918 141.396254,207.147287 145.819146,207.147287 C150.242038,207.147287 152.960522,203.668918 152.960522,199.382699 L152.960522,141.489893 L162.482356,141.489893 L162.482356,199.382699 C162.482356,203.668918 165.198459,207.147287 169.621352,207.147287 C174.044244,207.147287 176.765108,203.668918 176.765108,199.382699 L176.765108,104.778901 L196.594328,118.399245 C197.989277,119.350199 199.569902,119.816444 201.179092,119.816444 C203.281037,119.816444 205.349655,119.01321 206.906475,117.459831 L223.393532,100.982009 C226.471465,97.905256 226.388149,92.9889145 223.210237,89.9998712 L223.210237,89.9998712 Z" id="Shape" stroke="#5C5C5C" stroke-width="6"></path>
                    <path d="M160.763665,8.74636429 C160.763665,7.43072361 159.713883,6.32743195 157.30962,6.32743195 C155.121978,6.32743195 153.284264,7.34532237 151.927403,8.95871331 L148.38528,5.09950065 C150.703847,2.42667274 154.203121,0.986392412 157.964246,0.986392412 C163.610694,0.986392412 167.064739,3.74231342 167.064739,7.68692732 C167.064739,13.8796711 159.759111,14.3459157 159.759111,17.9096862 C159.759111,18.5859717 159.759112,20.290686 159.759112,20.290686 L155.18345,20.290686 C155.18345,20.290686 154.331666,18.7567742 154.331666,17.2726392 C154.331666,12.2662802 160.763665,11.6730878 160.763665,8.74636429 Z M154.331666,26.7314032 C154.331666,24.8641167 155.950378,23.2968886 157.873788,23.2968886 C159.80196,23.2968886 161.418291,24.8664249 161.418291,26.7314032 C161.418291,28.5963816 159.80196,30.1659178 157.873788,30.1659178 C155.947997,30.1659178 154.331666,28.5963816 154.331666,26.7314032 L154.331666,26.7314032 Z" id="Shape" stroke="#5C5C5C" stroke-width="2"></path>
                    <text id="Who-We-Are" font-family="OpenSans, Open Sans" font-size="48" font-weight="normal" letter-spacing="1.23323083" fill="#525252">
                        <tspan x="6.74790835" y="283.585015">Who We Are</tspan>
                    </text>
                </g>
            </g>
        </g>
    </g>
</svg>